<?xml version="1.0" encoding="UTF-8" standalone="no"?>
<svg
   xmlns:dc="http://purl.org/dc/elements/1.1/"
   xmlns:cc="http://creativecommons.org/ns#"
   xmlns:rdf="http://www.w3.org/1999/02/22-rdf-syntax-ns#"
   xmlns:svg="http://www.w3.org/2000/svg"
   xmlns="http://www.w3.org/2000/svg"
   viewBox="0 0 202.425 124.9375"
   height="124.9375"
   width="202.425"
   xml:space="preserve"
   version="1.1"
   id="svg2"><metadata
     id="metadata8"><rdf:RDF><cc:Work
         rdf:about=""><dc:format>image/svg+xml</dc:format><dc:type
           rdf:resource="http://purl.org/dc/dcmitype/StillImage" /></cc:Work></rdf:RDF></metadata><defs
     id="defs6"><linearGradient
       id="linearGradient94"
       spreadMethod="pad"
       gradientTransform="matrix(875.75,-389.909,389.909,875.75,378.667,-444.108)"
       gradientUnits="userSpaceOnUse"
       y2="0"
       x2="1"
       y1="0"
       x1="0"><stop
         id="stop96"
         offset="0"
         style="stop-opacity:1;stop-color:#374fa4" /><stop
         id="stop98"
         offset="0.35"
         style="stop-opacity:1;stop-color:#29aeea" /><stop
         id="stop100"
         offset="0.63"
         style="stop-opacity:1;stop-color:#40beaa" /><stop
         id="stop102"
         offset="1"
         style="stop-opacity:1;stop-color:#506e3b" /></linearGradient></defs><g
     transform="matrix(1.25,0,0,-1.25,0,124.9375)"
     id="g10"><g
       transform="scale(0.1,0.1)"
       id="g12"><path
         id="path14"
         style="fill:#182f4c;fill-opacity:1;fill-rule:nonzero;stroke:none"
         d="m 115.496,319.262 c -4.5,15.301 -16.1991,45 -48.8983,45 -15.3008,0 -26.6993,-11.699 -26.6993,-26.399 0,-48.898 101.6956,-27 101.6956,-98.996 0,-45.898 -32.399,-67.797 -79.7971,-67.797 C 32.0977,171.07 0,181.871 0,200.766 c 0,3.605 1.5,6.902 3.30078,10.504 l 15.00002,27.894 6,0 c 3.6015,-15.594 13.4961,-52.492 49.7969,-52.492 17.0976,0 28.5003,13.496 28.5003,30.898 0,57.293 -98.69566,31.496 -98.69566,98.391 0,39.602 30.29686,63.902 71.69536,63.902 37.7973,0 60.2973,-10.8 60.2973,-27.898 0,-3.004 -1.801,-6.301 -3,-9 l -11.399,-23.703 -6,0" /><path
         id="path16"
         style="fill:#182f4c;fill-opacity:1;fill-rule:nonzero;stroke:none"
         d="m 154.195,181.566 10.801,4.504 c 9.297,3.598 9.598,6.297 9.598,21.899 l 0,146.695 c 0,14.098 -0.899,15.899 -9.899,19.496 l -10.5,3.903 0,6.601 56.399,6.297 3,-3 0,-119.996 c 0,-5.098 0.898,-6.899 3.301,-6.899 2.699,0 5.398,1.2 9.898,3.301 4.5,2.098 8.699,5.102 14.102,12.899 l 8.097,11.402 c 5.699,7.797 9,12.598 9,15.898 0,1.797 -1.801,2.997 -4.5,4.497 l -9.601,4.503 0,6.594 61.797,0 0,-6.594 -14.098,-5.402 c -8.399,-3.301 -11.399,-6.297 -17.699,-13.199 L 258.59,277.563 c -1.797,-2.098 -4.496,-5.399 -4.496,-6.899 0,-7.5 51.894,-76.797 68.996,-89.098 l 0,-6.593 -42.899,0 c -11.097,0 -18.3,11.394 -24.898,22.195 l -28.5,45 c -2.102,3.598 -4.5,5.098 -5.699,5.098 -1.199,0 -3,-0.602 -4.801,-1.2 -2.098,-0.597 -2.699,-2.101 -2.699,-8.398 l 0,-29.699 c 0,-15.602 1.199,-18.598 9.597,-21.899 l 10.801,-4.504 0,-6.593 -79.797,0 0,6.593" /><path
         id="path18"
         style="fill:#182f4c;fill-opacity:1;fill-rule:nonzero;stroke:none"
         d="m 334.195,181.566 10.801,4.504 c 9.297,3.598 9.598,6.297 9.598,21.899 l 0,76.496 c 0,14.101 -0.899,15.902 -9.899,19.5 l -10.5,3.902 0,6.598 53.102,8.098 c 2.098,-7.2 3.297,-15 7.797,-15 4.5,0 16.797,16.5 34.801,16.5 11.699,0 20.394,-2.997 20.394,-12.903 0,-1.793 -0.898,-3.894 -1.797,-5.695 l -11.097,-22.797 -5.102,0 c -3.301,6.898 -8.102,17.395 -22.801,17.395 -13.5,0 -15.898,-6.899 -15.898,-18.598 l 0,-73.496 c 0,-15.602 1.203,-18.903 9.597,-21.899 l 12.602,-4.504 0,-6.593 -81.598,0 0,6.593" /><path
         id="path20"
         style="fill:#182f4c;fill-opacity:1;fill-rule:nonzero;stroke:none"
         d="m 477.293,365.16 c 0,13.801 8.699,20.403 22.5,20.403 13.797,0 22.496,-6.602 22.496,-20.403 0,-13.797 -8.699,-20.398 -22.496,-20.398 -13.801,0 -22.5,6.601 -22.5,20.398 z m -18,-183.594 10.801,4.504 c 9.297,3.598 9.597,6.297 9.597,21.899 l 0,76.496 c 0,14.101 -0.898,15.902 -9.898,19.5 l -10.5,3.902 0,6.598 56.398,8.098 3,-2.997 0,-111.597 c 0,-15.602 1.2,-18.598 9.602,-21.899 l 10.797,-4.504 0,-6.593 -79.797,0 0,6.593" /><path
         id="path22"
         style="fill:#182f4c;fill-opacity:1;fill-rule:nonzero;stroke:none"
         d="m 607.488,219.668 c 0,-20.699 3,-34.801 25.496,-34.801 25.204,0 30.602,21.602 30.602,52.801 0,37.797 -4.801,68.398 -32.398,68.398 -18.598,0 -23.7,-7.203 -23.7,-29.699 l 0,-56.699 z m -6,102.895 c 0.899,-2.7 1.801,-5.696 3.301,-8.098 1.199,-2.399 3,-3.902 4.496,-3.902 3.903,0 7.5,3.3 13.203,6.902 5.996,3.297 13.797,6.598 25.797,6.598 42.899,0 56.699,-24.297 56.699,-73.2 0,-56.394 -32.398,-79.793 -72.898,-79.793 -3.898,0 -7.801,0.602 -11.398,0.899 -3.301,0.601 -6.301,0.902 -9,0.902 -3.297,0 -4.2,-3.301 -4.2,-8.101 l 0,-16.801 c 0,-15.899 1.5,-17.696 12.602,-22.196 l 10.797,-4.199 0,-6.601 -82.797,0 0,6.601 10.801,4.496 c 9.297,3.602 9.597,6.305 9.597,21.899 l 0,136.496 c 0,14.101 -0.898,15.902 -9.898,19.5 l -10.5,3.902 0,6.598 53.398,8.098" /><path
         id="path24"
         style="fill:#182f4c;fill-opacity:1;fill-rule:nonzero;stroke:none"
         d="m 794.082,175.867 c -8.699,-2.996 -14.098,-4.797 -23.695,-4.797 -28.801,0 -35.102,12.297 -35.102,37.797 l 0,85.196 c 0,8.703 -0.898,11.402 -6.898,13.203 l -11.699,3.297 0,6.601 12.597,2.996 c 8.699,2.106 9.903,3.606 12.899,11.707 l 11.703,33.293 11.996,0 6.601,-33.293 c 1.797,-9.304 4.801,-9.902 14.7,-11.707 l 16.199,-2.996 0,-6.601 -21.899,-5.395 c -6,-1.508 -7.203,-3.902 -7.203,-14.703 l 0,-61.5 c 0,-33.598 7.203,-38.399 35.403,-41.094 l 0,-6.601 -15.602,-5.403" /><path
         id="path26"
         style="fill:#182f4c;fill-opacity:1;fill-rule:nonzero;stroke:none"
         d="m 891.277,184.867 c 22.203,0 25.801,32.399 25.801,62.703 0,38.993 -6.297,62.696 -32.394,62.696 -19.801,0 -26.098,-25.801 -26.098,-54 0,-43.496 5.394,-71.399 32.691,-71.399 z m -74.093,62.102 c 0,57.894 34.5,77.094 72.296,77.094 43.5,0 68.997,-18.895 68.997,-70.497 0,-57.898 -27.301,-82.496 -75.895,-82.496 -42.301,0 -65.398,24.598 -65.398,75.899" /><path
         id="path28"
         style="fill:#182f4c;fill-opacity:1;fill-rule:nonzero;stroke:none"
         d="m 970.18,181.566 10.797,4.504 c 9.3,3.598 9.597,6.297 9.597,21.899 l 0,76.496 c 0,14.101 -0.894,15.902 -9.894,19.5 l -10.5,3.902 0,6.598 53.1,8.098 c 2.1,-7.2 3.3,-15 7.79,-15 4.51,0 16.81,16.5 34.8,16.5 11.7,0 20.4,-2.997 20.4,-12.903 0,-1.793 -0.89,-3.894 -1.8,-5.695 l -11.1,-22.797 -5.09,0 c -3.3,6.898 -8.1,17.395 -22.81,17.395 -13.49,0 -15.89,-6.899 -15.89,-18.598 l 0,-73.496 c 0,-15.602 1.2,-18.903 9.59,-21.899 l 12.61,-4.504 0,-6.593 -81.6,0 0,6.593" /><path
         id="path30"
         style="fill:#182f4c;fill-opacity:1;fill-rule:nonzero;stroke:none"
         d="m 1113.28,365.16 c 0,13.801 8.7,20.403 22.5,20.403 13.8,0 22.5,-6.602 22.5,-20.403 0,-13.797 -8.7,-20.398 -22.5,-20.398 -13.8,0 -22.5,6.601 -22.5,20.398 z m -18,-183.594 10.8,4.504 c 9.3,3.598 9.6,6.297 9.6,21.899 l 0,76.496 c 0,14.101 -0.9,15.902 -9.9,19.5 l -10.5,3.902 0,6.598 56.39,8.098 3.01,-2.997 0,-111.597 c 0,-15.602 1.19,-18.598 9.6,-21.899 l 10.79,-4.504 0,-6.593 -79.79,0 0,6.593" /><path
         id="path32"
         style="fill:#182f4c;fill-opacity:1;fill-rule:nonzero;stroke:none"
         d="m 1300.17,174.973 c -0.6,2.097 -1.2,4.496 -2.1,6.297 -0.9,1.8 -1.8,3 -3.6,3 -3.6,0 -6.9,-3.301 -13.2,-6.598 -6.6,-3.301 -16.2,-6.602 -32.7,-6.602 -30.6,0 -42.9,18.598 -42.9,48.297 l 0,65.098 c 0,14.101 -0.89,15.902 -9.9,19.5 l -10.5,3.902 0,6.598 56.4,8.098 3,-2.997 0,-92.101 c 0,-21.899 2.7,-38.399 27,-38.399 21.3,0.305 24.3,9.903 24.3,28.2 l 0,67.199 c 0,14.101 -0.9,15.902 -9.9,19.5 l -10.5,3.902 0,6.598 56.4,8.098 3,-2.997 0,-111.597 c 0,-15.602 1.2,-18.598 9.6,-21.899 l 10.8,-4.504 0,-6.593 -55.2,0" /><path
         id="path34"
         style="fill:#182f4c;fill-opacity:1;fill-rule:nonzero;stroke:none"
         d="m 1366.77,181.566 10.8,4.504 c 9.3,3.598 9.6,6.297 9.6,21.899 l 0,76.496 c 0,14.101 -0.9,15.902 -9.9,19.5 l -10.5,3.902 0,6.598 53.7,8.098 c 1.5,-6 2.7,-12.297 6.9,-12.297 6.9,0 17.4,13.797 39.9,13.797 30.29,0 33.89,-15.297 40.49,-15.297 6.61,0 22.2,15.297 42.9,15.297 36,0 48.3,-14.399 48.3,-53.399 l 0,-62.695 c 0,-15.602 1.2,-18.598 9.6,-21.899 l 10.8,-4.504 0,-6.593 -76.8,0 0,6.593 7.8,4.2 c 9.3,4.8 9.6,6.304 9.6,22.203 l 0,60.597 c 0,22.5 -5.1,37.5 -26.4,37.5 -15.9,0 -21,-8.703 -21,-22.5 l 0,-75.597 c 0,-15.899 1.2,-17.699 9.6,-22.203 l 7.8,-4.2 0,-6.593 -73.79,0 0,6.593 7.79,4.2 c 9.31,4.8 9.6,6.304 9.6,22.203 l 0,60.597 c 0,22.5 -4.49,37.5 -24.29,37.5 -18.01,0 -23.1,-8.703 -23.1,-22.5 l 0,-75.597 c 0,-15.899 1.2,-17.699 9.6,-22.203 l 7.79,-4.2 0,-6.593 -76.79,0 0,6.593" /><path
         id="path36"
         style="fill:#374fa4;fill-opacity:1;fill-rule:nonzero;stroke:none"
         d="m 25.8516,55.2734 0,-44.1757 -9.6758,0 0,44.1757 -15.750019,0 0,9 41.175819,0 0,-9 -15.75,0" /><path
         id="path38"
         style="fill:#374fa4;fill-opacity:1;fill-rule:nonzero;stroke:none"
         d="m 53.5273,11.0977 0,53.1757 37.875,0 0,-8.7734 -28.2031,0 0,-12.375 24.8242,0 0,-8.6992 -24.8242,0 0,-14.5508 28.2031,0 0,-8.7773 -37.875,0" /><path
         id="path40"
         style="fill:#374fa4;fill-opacity:1;fill-rule:nonzero;stroke:none"
         d="m 134.074,11.0977 -11.922,19.3515 -11.925,-19.3515 -10.4262,0 16.7262,27.0781 -16.5739,26.0976 10.5699,0 11.926,-18.5976 11.551,18.5976 10.5,0 -16.352,-26.1718 16.575,-27.0039 -10.649,0" /><path
         id="path42"
         style="fill:#374fa4;fill-opacity:1;fill-rule:nonzero;stroke:none"
         d="m 176,55.2734 0,-44.1757 -9.676,0 0,44.1757 -15.75,0 0,9 41.176,0 0,-9 -15.75,0" /><path
         id="path44"
         style="fill:#182f4c;fill-opacity:1;fill-rule:nonzero;stroke:none"
         d="m 243.789,0 7.35156,0 0,69.6016 -7.35156,0 0,-69.6016 z" /><path
         id="path46"
         style="fill:#29aeea;fill-opacity:1;fill-rule:nonzero;stroke:none"
         d="m 341.215,11.0977 -1.125,5.8515 c -1.578,-3.0703 -6.676,-6.75 -13.352,-6.8203 -6.148,-0.0781 -11.625,1.4961 -15.824,5.9219 -5.551,5.7734 -6.898,12.8984 -6.898,21.5976 0,8.6993 1.125,15.5977 6.898,21.375 4.051,4.0469 10.125,6.2266 15.824,6.2266 6.524,0 12.149,-2.4023 15.75,-6.0742 2.625,-2.6992 4.575,-6.0742 4.875,-10.7266 l -9.898,0 c -0.152,2.0977 -1.203,3.5235 -2.328,4.875 -1.875,2.1758 -4.801,3.2227 -8.473,3.2227 -3.074,0 -6.601,-1.3477 -8.699,-3.5977 -3.676,-3.8281 -4.125,-10.4258 -4.125,-15.3008 0,-4.875 0.523,-11.6992 4.199,-15.5234 2.102,-2.25 5.551,-3.375 8.625,-3.375 3.449,0 6.149,1.1992 7.949,3.0742 2.852,3 3.45,6.3008 3.45,10.3477 l -12.676,0 0,8.0273 22.051,0 0,-29.1015 -6.223,0" /><path
         id="path48"
         style="fill:#29aeea;fill-opacity:1;fill-rule:nonzero;stroke:none"
         d="m 362.887,11.0977 0,53.1757 37.875,0 0,-8.7734 -28.199,0 0,-12.375 24.824,0 0,-8.6992 -24.824,0 0,-14.5508 28.199,0 0,-8.7773 -37.875,0" /><path
         id="path50"
         style="fill:#29aeea;fill-opacity:1;fill-rule:nonzero;stroke:none"
         d="m 448.375,15.8242 c -4.051,-4.0508 -10.273,-5.6953 -16.797,-5.6953 -5.625,0 -11.551,1.4961 -15.898,5.4727 -3.153,2.8476 -5.551,7.3476 -5.551,12.3711 l 9.898,0 c 0,-2.6211 1.2,-4.9493 2.778,-6.5235 2.25,-2.25 5.847,-2.8515 8.925,-2.8515 3.672,0 7.2,0.7539 9.223,2.8515 1.199,1.2774 2.098,2.5508 2.098,5.0977 0,3.9023 -3,5.7031 -6.297,6.3008 -3.602,0.6796 -8.25,0.8242 -11.777,1.4257 -7.348,1.1993 -13.497,6 -13.497,14.8477 0,4.2031 1.872,7.7266 4.649,10.5039 3.523,3.4453 9.375,5.625 15.601,5.625 5.696,0 11.247,-1.8008 14.848,-5.1758 3.149,-3 5.324,-6.8984 5.399,-11.3242 l -9.899,0 c -0.074,1.875 -1.051,3.8984 -2.328,5.25 -1.723,1.7969 -5.246,2.8477 -8.098,2.8477 -3,0 -6.449,-0.6758 -8.625,-2.9258 -1.125,-1.1953 -1.8,-2.5508 -1.8,-4.4961 0,-3.4531 2.25,-5.25 5.402,-5.7774 3.375,-0.5234 8.098,-0.8984 11.547,-1.3476 7.953,-1.1289 14.629,-6.3008 14.629,-15.375 0,-4.9531 -1.805,-8.4766 -4.43,-11.1016" /><path
         id="path52"
         style="fill:#29aeea;fill-opacity:1;fill-rule:nonzero;stroke:none"
         d="m 499.676,16.4258 c -3.977,-4.0508 -9.524,-6.2969 -15.227,-6.2969 -5.695,0 -11.019,1.875 -15.07,5.9219 -5.774,5.7734 -6.602,12.8984 -6.602,21.5976 0,8.6993 0.828,15.8243 6.602,21.6016 4.051,4.0469 9.375,6 15.07,6 5.703,0 11.25,-2.1016 15.227,-6.1523 3.074,-3.1485 4.648,-7.3477 5.097,-11.5469 l -9.898,0 c -0.223,2.3242 -1.051,3.9726 -2.398,5.625 -1.723,2.1719 -4.727,3.3008 -8.028,3.3008 -3.07,0 -6.074,-1.2774 -8.172,-3.5274 -3.675,-3.8281 -3.675,-10.4258 -3.675,-15.3008 0,-4.875 0,-11.4765 3.675,-15.3007 2.098,-2.25 5.102,-3.5235 8.172,-3.5235 3.301,0 6.305,1.1992 8.028,3.375 1.347,1.6485 2.175,3.5235 2.398,5.8477 l 9.898,0 c -0.449,-4.1992 -2.023,-8.4727 -5.097,-11.6211" /><path
         id="path54"
         style="fill:#29aeea;fill-opacity:1;fill-rule:nonzero;stroke:none"
         d="m 549.102,11.0977 0,23.1757 -21.829,0 0,-23.1757 -9.671,0 0,53.1757 9.671,0 0,-20.7734 21.829,0 0,20.7734 9.671,0 0,-53.1757 -9.671,0" /><path
         id="path56"
         style="fill:#29aeea;fill-opacity:1;fill-rule:nonzero;stroke:none"
         d="m 575.727,11.0977 9.82422,0 0,53.1758 -9.82422,0 0,-53.1758 z" /><path
         id="path58"
         style="fill:#29aeea;fill-opacity:1;fill-rule:nonzero;stroke:none"
         d="m 636.176,16.4258 c -3.977,-4.0508 -9.528,-6.2969 -15.227,-6.2969 -5.699,0 -11.023,1.875 -15.074,5.9219 -5.773,5.7734 -6.598,12.8984 -6.598,21.5976 0,8.6993 0.825,15.8243 6.598,21.6016 4.051,4.0469 9.375,6 15.074,6 5.699,0 11.25,-2.1016 15.227,-6.1523 3.074,-3.1485 4.648,-7.3477 5.097,-11.5469 l -9.898,0 c -0.227,2.3242 -1.051,3.9726 -2.398,5.625 -1.727,2.1719 -4.727,3.3008 -8.028,3.3008 -3.074,0 -6.074,-1.2774 -8.172,-3.5274 -3.675,-3.8281 -3.675,-10.4258 -3.675,-15.3008 0,-4.875 0,-11.4765 3.675,-15.3007 2.098,-2.25 5.098,-3.5235 8.172,-3.5235 3.301,0 6.301,1.1992 8.028,3.375 1.347,1.6485 2.171,3.5235 2.398,5.8477 l 9.898,0 c -0.449,-4.1992 -2.023,-8.4727 -5.097,-11.6211" /><path
         id="path60"
         style="fill:#29aeea;fill-opacity:1;fill-rule:nonzero;stroke:none"
         d="m 685.602,11.0977 0,23.1757 -21.829,0 0,-23.1757 -9.671,0 0,53.1757 9.671,0 0,-20.7734 21.829,0 0,20.7734 9.671,0 0,-53.1757 -9.671,0" /><path
         id="path62"
         style="fill:#29aeea;fill-opacity:1;fill-rule:nonzero;stroke:none"
         d="m 731.875,55.2734 0,-44.1757 -9.68,0 0,44.1757 -15.746,0 0,9 41.172,0 0,-9 -15.746,0" /><path
         id="path64"
         style="fill:#29aeea;fill-opacity:1;fill-rule:nonzero;stroke:none"
         d="m 758.801,11.0977 0,53.1757 37.871,0 0,-8.7734 -28.199,0 0,-12.375 24.824,0 0,-8.6992 -24.824,0 0,-14.5508 28.199,0 0,-8.7773 -37.871,0" /><path
         id="path66"
         style="fill:#182f4c;fill-opacity:1;fill-rule:nonzero;stroke:none"
         d="m 850.898,0 7.34766,0 0,69.6016 -7.34766,0 0,-69.6016 z" /><path
         id="path68"
         style="fill:#40beaa;fill-opacity:1;fill-rule:nonzero;stroke:none"
         d="M 947.418,11.0977 933.02,36.2266 923.867,25.5 l 0,-14.4023 -9.672,0 0,53.1757 9.672,0 0,-24.5234 21.227,24.5234 11.777,0 -17.101,-20.0976 19.046,-33.0781 -11.398,0" /><path
         id="path70"
         style="fill:#40beaa;fill-opacity:1;fill-rule:nonzero;stroke:none"
         d="m 989.645,10.1289 c -13.723,0 -20.852,8.6953 -20.852,21.3711 l 0,32.7734 9.68,0 0,-32.6211 c 0,-7.5781 3.445,-12.75 11.172,-12.75 7.722,0 11.175,5.1719 11.175,12.75 l 0,32.6211 9.67,0 0,-32.7734 c 0,-12.6758 -7.12,-21.3711 -20.845,-21.3711" /><path
         id="path72"
         style="fill:#40beaa;fill-opacity:1;fill-rule:nonzero;stroke:none"
         d="m 1026.69,11.0977 0,53.1757 9.68,0 0,-44.0234 24.67,0 0,-9.1523 -34.35,0" /><path
         id="path74"
         style="fill:#40beaa;fill-opacity:1;fill-rule:nonzero;stroke:none"
         d="m 1084.95,55.2734 0,-44.1757 -9.67,0 0,44.1757 -15.75,0 0,9 41.17,0 0,-9 -15.75,0" /><path
         id="path76"
         style="fill:#40beaa;fill-opacity:1;fill-rule:nonzero;stroke:none"
         d="m 1131.98,10.1289 c -13.73,0 -20.85,8.6953 -20.85,21.3711 l 0,32.7734 9.67,0 0,-32.6211 c 0,-7.5781 3.45,-12.75 11.18,-12.75 7.72,0 11.17,5.1719 11.17,12.75 l 0,32.6211 9.68,0 0,-32.7734 c 0,-12.6758 -7.13,-21.3711 -20.85,-21.3711" /><path
         id="path78"
         style="fill:#40beaa;fill-opacity:1;fill-rule:nonzero;stroke:none"
         d="m 1191.45,55.7969 -12.75,0 0,-15.8985 12.9,0 c 5.48,0 8.62,2.8516 8.62,7.875 0,4.2735 -3.3,8.0235 -8.77,8.0235 z m 7.95,-44.6992 -8.85,20.1015 -11.78,0 0,-20.1015 -9.74,0 0,53.1757 22.42,0 c 12.68,0 18.45,-7.9492 18.45,-16.5 0,-7.125 -3.9,-12.75 -9.75,-14.9257 l 9.75,-21.75 -10.5,0" /><path
         id="path80"
         style="fill:#182f4c;fill-opacity:1;fill-rule:nonzero;stroke:none"
         d="m 1265.7,0 7.3516,0 0,69.6016 -7.3516,0 0,-69.6016 z" /><path
         id="path82"
         style="fill:#506e3a;fill-opacity:1;fill-rule:nonzero;stroke:none"
         d="M 1343.55,52.4219 1335.97,30 l 15.15,0 -7.57,22.4219 z m 14.02,-41.3242 -3.45,10.2031 -21.15,0 -3.45,-10.2031 -9.74,0 18.67,53.1757 10.57,0 18.68,-53.1757 -10.13,0" /><path
         id="path84"
         style="fill:#506e3a;fill-opacity:1;fill-rule:nonzero;stroke:none"
         d="m 1401.6,55.7969 -12.75,0 0,-15.8985 12.9,0 c 5.47,0 8.62,2.8516 8.62,7.875 0,4.2735 -3.3,8.0235 -8.77,8.0235 z m 7.95,-44.6992 -8.85,20.1015 -11.78,0 0,-20.1015 -9.75,0 0,53.1757 22.43,0 c 12.67,0 18.44,-7.9492 18.44,-16.5 0,-7.125 -3.89,-12.75 -9.74,-14.9257 l 9.74,-21.75 -10.49,0" /><path
         id="path86"
         style="fill:#506e3a;fill-opacity:1;fill-rule:nonzero;stroke:none"
         d="m 1467.52,16.4258 c -3.98,-4.0508 -9.52,-6.2969 -15.23,-6.2969 -5.69,0 -11.02,1.875 -15.07,5.9219 -5.77,5.7734 -6.59,12.8984 -6.59,21.5976 0,8.6993 0.82,15.8243 6.59,21.6016 4.05,4.0469 9.38,6 15.07,6 5.71,0 11.25,-2.1016 15.23,-6.1523 3.08,-3.1485 4.65,-7.3477 5.1,-11.5469 l -9.9,0 c -0.22,2.3242 -1.05,3.9726 -2.4,5.625 -1.72,2.1719 -4.72,3.3008 -8.03,3.3008 -3.07,0 -6.07,-1.2774 -8.17,-3.5274 -3.67,-3.8281 -3.67,-10.4258 -3.67,-15.3008 0,-4.875 0,-11.4765 3.67,-15.3007 2.1,-2.25 5.1,-3.5235 8.17,-3.5235 3.31,0 6.31,1.1992 8.03,3.375 1.35,1.6485 2.18,3.5235 2.4,5.8477 l 9.9,0 c -0.45,-4.1992 -2.02,-8.4727 -5.1,-11.6211" /><path
         id="path88"
         style="fill:#506e3a;fill-opacity:1;fill-rule:nonzero;stroke:none"
         d="m 1517.7,11.0977 0,23.1757 -21.83,0 0,-23.1757 -9.67,0 0,53.1757 9.67,0 0,-20.7734 21.83,0 0,20.7734 9.67,0 0,-53.1757 -9.67,0" /><path
         id="path90"
         style="fill:#506e3a;fill-opacity:1;fill-rule:nonzero;stroke:none"
         d="m 1545.07,11.0977 9.8281,0 0,53.1758 -9.8281,0 0,-53.1758 z" /><path
         id="path92"
         style="fill:#506e3a;fill-opacity:1;fill-rule:nonzero;stroke:none"
         d="m 1594.64,11.0977 -10.65,0 -17.62,53.1757 10.28,0 12.9,-40.5742 12.82,40.5742 9.75,0 -17.48,-53.1757" /><path
         id="path104"
         style="fill:none;stroke:url(#linearGradient94);stroke-width:8.63218975;stroke-linecap:round;stroke-linejoin:round;stroke-miterlimit:10;stroke-dasharray:none;stroke-opacity:1"
         d="m 1033.73,995.195 c 0,0 -19.63,-9.441 -42.015,-12.586 -13.75,-1.929 -35.731,-1.14 -35.731,-1.14 0.516,-1.215 48.326,-52.367 75.396,-115.406 28.58,-66.543 46.63,-118.875 46.63,-118.875 l -30.67,-13.657 c 0,0 -13.66,54.285 -43.46,117.66 -25.716,54.715 -72.704,114.735 -72.704,114.735 0,0 -3.496,-14.84 0.344,-33.559 4.933,-24.054 12.027,-40.222 12.027,-40.222 0,0 -116.984,-45.141 -183.309,-66.661 -66.32,-21.515 -171.293,-47.804 -186.008,-55.468 -14.714,-7.668 -39.062,-42.395 -56.91,-68.469 -17.847,-26.074 -52.379,-63.004 -71.828,-82.965 -19.449,-19.957 -55.445,-51.027 -61.226,-55.859 -5.786,-4.832 -3.528,-11.352 -3.528,-11.352 l 288.137,127.891 c 0,0 0.301,13.461 12.566,18.922 10.207,4.546 22.129,-1.356 25.375,-8.649 4.489,-10.078 2.254,-22.527 -6.796,-27.176 -13.434,-6.898 -24.075,0.993 -24.075,0.993 L 387.012,536.242 c 0,0 0.968,-5.734 8.277,-5.355 14.399,0.742 39.113,5.777 96.18,7.332 57.066,1.554 165.633,-13.356 189.371,-6.324 23.738,7.031 93.523,56.441 156.351,92.203 67.036,38.16 160.086,89.242 160.086,89.242 0,0 -2.562,11.062 -4.722,16.797 -2.157,5.73 -9.543,19.375 -9.543,19.375 0,0 -86.469,-47.711 -120.289,-63.793 -38.993,-18.543 -78.953,-4.836 -94.457,26.449 -13.61,27.461 -7.129,67.301 34.675,83.945 25.786,10.266 66.969,10.524 84.196,-29.05 17.937,-40.836 -8.84,-85.004 -28.231,-102.731 -16.789,-15.348 -41.379,-25.379 -76.277,-46.035 -34.899,-20.656 -66.891,-37.524 -78.609,-43.922 -11.719,-6.398 -29.426,-10.801 -45.915,-4.168 -19.824,7.973 -52.113,21.547 -64.972,25.668 -12.856,4.117 -59.875,13.629 -59.875,13.629 0,0 19.93,31.812 34.16,68.887 10.207,26.593 15.113,45.05 17.297,55.472 2.297,10.957 10.531,19.387 29.297,24.985 18.769,5.601 68.011,19.386 151.527,46.992 100.274,33.14 187.055,69.762 187.055,69.762 0,0 17.347,-20.098 33.097,-56.657 19.749,-45.836 33.329,-86.343 39.219,-102.226 5.89,-15.883 14.08,-42.067 36.5,-43.071 15,-0.671 41.53,9.711 53.69,24.43 22.61,27.379 194.26,101.871 194.26,101.871" /></g></g></svg>